<?xml version="1.0" standalone="no"?>
<!DOCTYPE svg PUBLIC "-//W3C//DTD SVG 20010904//EN"
 "http://www.w3.org/TR/2001/REC-SVG-20010904/DTD/svg10.dtd">
<svg version="1.0" xmlns="http://www.w3.org/2000/svg"
 width="700.000000pt" height="700.000000pt" viewBox="0 0 700.000000 700.000000"
 preserveAspectRatio="xMidYMid meet">
<metadata>
Created by potrace 1.14, written by Peter Selinger 2001-2017
</metadata>
<g transform="translate(0.000000,700.000000) scale(0.100000,-0.100000)"
fill="#000000" stroke="none">
<path d="M1440 6724 c-505 -47 -929 -382 -1085 -859 -62 -188 -78 -380 -50
-570 41 -270 156 -498 359 -712 l95 -100 -30 -94 c-148 -466 -178 -996 -84
-1464 87 -430 264 -826 528 -1181 l80 -107 -49 -45 c-27 -25 -168 -161 -313
-301 -300 -290 -311 -306 -311 -426 0 -46 7 -84 19 -111 63 -140 223 -207 364
-154 53 20 91 53 374 324 173 165 320 300 327 300 7 -1 50 -29 95 -64 182
-139 450 -289 676 -378 926 -367 2008 -225 2797 366 61 45 114 81 118 80 4 -2
143 -133 309 -293 179 -172 323 -302 354 -320 46 -27 61 -30 132 -30 63 0 89
5 121 22 63 34 97 66 129 125 26 46 30 63 30 133 0 129 -3 133 -356 472 -170
164 -308 302 -305 308 2 5 37 55 79 110 561 748 725 1743 435 2637 l-32 97
100 103 c249 256 366 539 366 883 0 353 -131 659 -388 905 -104 100 -196 163
-326 225 -173 82 -339 119 -533 119 -195 0 -363 -38 -534 -120 -134 -64 -217
-122 -353 -247 l-119 -108 -77 25 c-534 176 -1163 180 -1725 10 l-118 -36
-108 105 c-200 193 -390 296 -639 346 -99 20 -271 32 -352 25z m266 -594 c90
-23 183 -66 233 -108 l34 -28 -88 -59 c-306 -204 -597 -496 -809 -815 l-53
-80 -27 35 c-37 48 -92 168 -111 240 -19 75 -19 240 0 322 55 232 251 431 487
493 99 26 232 26 334 0z m3908 5 c185 -39 370 -185 453 -355 49 -101 73 -201
73 -305 0 -83 -22 -194 -52 -265 -27 -63 -100 -173 -108 -163 -4 4 -31 44 -60
88 -96 146 -213 288 -355 431 -149 149 -266 248 -432 361 l-102 70 44 32 c58
41 161 88 233 106 76 18 221 18 306 0z m-1899 -310 c327 -22 727 -155 1020
-340 278 -175 535 -423 713 -687 623 -926 499 -2175 -293 -2962 -478 -475
-1149 -726 -1808 -676 -326 24 -585 94 -872 235 -474 232 -839 597 -1071 1070
-322 657 -322 1402 1 2060 368 752 1114 1253 1945 1305 123 7 185 6 365 -5z"/>
<path d="M3440 4959 c-96 -19 -185 -102 -214 -200 -14 -45 -14 -114 -1 -607
20 -767 18 -738 44 -798 12 -28 39 -68 60 -88 20 -20 300 -232 622 -471 638
-475 634 -473 750 -462 70 6 149 46 190 97 58 70 82 177 59 260 -25 89 -58
122 -347 336 -153 114 -393 293 -534 397 l-256 191 -8 325 c-16 725 -19 802
-42 852 -56 125 -189 195 -323 168z"/>
</g>
</svg>
